<svg xmlns="http://www.w3.org/2000/svg" viewBox="0 0 31 37"><path fill="#77C059" fill-rule="nonzero" d="M9.451 29.41H7.828a2.446 2.446 0 0 1-2.446-2.447V12.286h20.236v14.677a2.446 2.446 0 0 1-2.446 2.446H21.55v5.004a2.268 2.268 0 1 1-4.537 0v-5.004h-3.024v5.004a2.268 2.268 0 1 1-4.537 0v-5.004zm1.67-26.325a10.78 10.78 0 0 1 4.379-.917c1.569 0 3.054.33 4.38.917L21.496.166a.322.322 0 0 1 .564.313l-1.6 2.886c3.079 1.602 5.157 4.648 5.157 8.143H5.382c0-3.495 2.078-6.54 5.157-8.143L8.939.48a.322.322 0 0 1 .564-.313l1.618 2.92zm-.291 4.709a.845.845 0 1 0 0-1.69.845.845 0 0 0 0 1.69zm9.34 0a.845.845 0 1 0 0-1.69.845.845 0 0 0 0 1.69zm8.562 4.114A2.268 2.268 0 0 1 31 14.176v9.451a2.268 2.268 0 1 1-4.537 0v-9.45a2.268 2.268 0 0 1 2.269-2.27zm-26.464 0a2.268 2.268 0 0 1 2.269 2.268v9.451a2.268 2.268 0 1 1-4.537 0v-9.45a2.268 2.268 0 0 1 2.268-2.27z"/></svg>