<svg xmlns="http://www.w3.org/2000/svg" viewBox="0 0 29 36"><path fill="#464646" fill-rule="evenodd" d="M21.02 8.624c1.012 0 4.668.092 7.06 3.542-.207.16-3.84 2.208-3.84 6.784 0 5.29 4.622 7.175 4.76 7.221-.023.115-.736 2.553-2.438 5.06-1.518 2.185-3.127 4.392-5.542 4.392-2.438 0-3.059-1.426-5.842-1.426-2.736 0-3.702 1.472-5.91 1.472-2.23 0-3.772-2.046-5.542-4.53C1.656 28.195 0 23.642 0 19.318 0 12.396 4.508 8.716 8.946 8.716c2.346 0 4.3 1.54 5.795 1.54 1.403 0 3.588-1.632 6.279-1.632zm-1.265-2.92c-1.196 1.448-3.22 2.53-4.83 2.53-.184 0-.368-.024-.482-.047a3.157 3.157 0 0 1-.07-.644c0-1.84.943-3.68 1.955-4.83C17.616 1.197 19.778.07 21.572 0c.046.207.069.46.069.713 0 1.84-.782 3.657-1.886 4.99z"/></svg>