<svg xmlns="http://www.w3.org/2000/svg" xmlns:xlink="http://www.w3.org/1999/xlink" viewBox="0 0 34 34"><defs><path id="a" d="M33.64 13.5H19.141c-.41-1.956-1.154-3.714-2.142-5.146-1.549 2.245-2.5 5.291-2.5 8.646 0 3.355.951 6.4 2.5 8.646a13.412 13.412 0 0 0 1.584-3.146h14.507C30.805 29.19 24.464 34 17 34 7.611 34 0 26.389 0 17S7.611 0 17 0c8.19 0 15.026 5.79 16.64 13.5z"/></defs><g fill="none" fill-rule="evenodd"><mask id="b" fill="#fff"><use xlink:href="#a"/></mask><use fill="#9AB3E2" xlink:href="#a"/><path fill="#40549A" d="M4.478 28.498C6.168 30.072 8.236 31 10.5 31c2.483 0 4.729-1.116 6.5-2.975C18.771 29.885 21.017 31 23.5 31c2.264 0 4.332-.928 6.022-2.502A16.955 16.955 0 0 1 17 34c-4.955 0-9.414-2.12-12.522-5.502zM.001 17.191zm4.477-11.69A16.955 16.955 0 0 1 17 0c4.955 0 9.414 2.12 12.522 5.502C27.832 3.928 25.764 3 23.5 3c-2.483 0-4.729 1.116-6.5 2.975C15.229 4.115 12.983 3 10.5 3c-2.264 0-4.332.928-6.022 2.502zM34 16.81z" mask="url(#b)"/><circle cx="17" cy="17" r="16.25" stroke="#142C5B" stroke-width="1.5" mask="url(#b)"/><ellipse cx="10.5" cy="17" stroke="#142C5B" stroke-width="1.5" mask="url(#b)" rx="9.75" ry="13.25"/><ellipse cx="23.5" cy="17" stroke="#142C5B" stroke-width="1.5" mask="url(#b)" rx="9.75" ry="13.25"/><path fill="#142C5B" d="M19 12h14.5v1.5H19zM18.5 22.5H33V24H18.5z" mask="url(#b)"/></g></svg>