<svg xmlns="http://www.w3.org/2000/svg" viewBox="0 0 33 33"><path fill="#003790" fill-rule="evenodd" d="M16.5 33C7.387 33 0 25.613 0 16.5S7.387 0 16.5 0 33 7.387 33 16.5 25.613 33 16.5 33zM13.529 6.6c-.001 5.657-.002 11.314 0 16.971 1.279.407 2.558.813 3.838 1.218.003-4.756 0-9.512.001-14.268.008-.27.054-.558.227-.774a.471.471 0 0 1 .453-.175c.166.035.332.1.46.216.193.166.293.414.338.66.065.317.043.641.047.963.003 1.776-.005 3.553.004 5.33.534.248 1.112.438 1.707.432.393.008.79-.081 1.135-.268a2.34 2.34 0 0 0 .872-.84c.242-.394.388-.84.47-1.293.098-.52.1-1.053.083-1.58-.036-.81-.157-1.632-.51-2.368a3.842 3.842 0 0 0-.779-1.095 5.109 5.109 0 0 0-1.007-.771c-.809-.48-1.698-.803-2.59-1.087a60.24 60.24 0 0 0-1.714-.522c-1.003-.285-2.01-.558-3.035-.749zM7.778 18.636c-.407.148-.82.28-1.219.45-.462.195-.919.413-1.333.698a1.225 1.225 0 0 0-.434.477.824.824 0 0 0-.024.642c.092.243.274.44.477.598.368.28.807.45 1.249.578 1.346.443 2.767.663 4.185.63a13.03 13.03 0 0 0 2.097-.22c.011-.11.004-.221.006-.332-.001-.554.002-1.109-.002-1.663-.564.202-1.127.407-1.69.611a4.19 4.19 0 0 1-.663.203c-.336.074-.68.1-1.024.105-.308-.014-.624-.03-.913-.148-.104-.046-.217-.106-.262-.216-.036-.094.018-.19.083-.256.141-.14.329-.218.511-.287 1.318-.47 2.634-.946 3.953-1.414.012-.088.006-.177.007-.266-.001-.656.001-1.31-.001-1.966-1.669.589-3.335 1.185-5.003 1.776zm13.421-.746c-1.054.121-2.101.334-3.104.686v2.307c1.385-.484 2.769-.976 4.154-1.461.461-.156.95-.216 1.436-.219.31.009.626.03.918.146.102.045.214.104.26.212.045.123-.044.237-.135.309-.224.178-.507.25-.77.348-1.945.694-3.89 1.388-5.835 2.08-.04.008-.025.058-.029.086v2.148l7.67-2.755c.42-.155.849-.286 1.249-.49.375-.19.749-.408 1.031-.725.149-.169.253-.389.24-.618-.002-.281-.175-.528-.375-.71-.334-.3-.752-.485-1.169-.638-.234-.074-.461-.167-.696-.238-1.197-.376-2.454-.531-3.706-.536-.38.014-.76.024-1.139.068z"/></svg>