<svg xmlns="http://www.w3.org/2000/svg" viewBox="0 0 33 33"><path fill="#E7010A" fill-rule="evenodd" d="M15.92 0v33h-5.41c-3.654 0-4.98-.38-6.316-1.095a7.45 7.45 0 0 1-3.099-3.1C.381 27.47 0 26.146 0 22.49V10.51c0-3.654.38-4.98 1.095-6.316a7.45 7.45 0 0 1 3.1-3.099C5.53.381 6.854 0 10.51 0h5.41zm-2.665 2.665H9.759c-2.467 0-3.361.256-4.263.739a5.029 5.029 0 0 0-2.092 2.092c-.483.902-.74 1.796-.74 4.263v13.482c0 2.467.257 3.361.74 4.263a5.029 5.029 0 0 0 2.092 2.092c.902.483 1.796.74 4.263.74h3.496V2.664zM19.335 0h3.155c3.654 0 4.98.38 6.316 1.095a7.45 7.45 0 0 1 3.099 3.1C32.619 5.53 33 6.854 33 10.51v11.98c0 3.654-.38 4.98-1.095 6.316a7.45 7.45 0 0 1-3.1 3.099C27.47 32.619 26.146 33 22.49 33h-3.155V0zM8.301 12.981a3.109 3.109 0 1 1 0-6.217 3.109 3.109 0 0 1 0 6.217zm17.49 8.472a3.314 3.314 0 1 0 0-6.627 3.314 3.314 0 0 0 0 6.627z"/></svg>