<svg xmlns="http://www.w3.org/2000/svg" viewBox="0 0 33 33"><path fill="#E95420" fill-rule="nonzero" d="M33 16.5C33 25.613 25.613 33 16.5 33S0 25.613 0 16.5 7.387 0 16.5 0 33 7.387 33 16.5zm-25.063 0a2.122 2.122 0 1 0-4.243 0 2.122 2.122 0 0 0 4.243 0zm12.07 10.315a2.122 2.122 0 1 0 3.674-2.124 2.122 2.122 0 0 0-3.675 2.124zM23.68 8.307a2.12 2.12 0 1 0-3.674-2.122 2.12 2.12 0 1 0 3.674 2.122zM16.5 10.45a6.049 6.049 0 0 1 6.026 5.514l3.07-.048a9.086 9.086 0 0 0-2.677-5.885 2.979 2.979 0 0 1-2.568-.2 2.98 2.98 0 0 1-1.457-2.127 9.12 9.12 0 0 0-2.394-.318 9.08 9.08 0 0 0-4.042.943l1.493 2.683a6.037 6.037 0 0 1 2.55-.562zm-6.05 6.05a6.041 6.041 0 0 1 2.573-4.95l-1.577-2.635a9.128 9.128 0 0 0-3.76 5.26A2.978 2.978 0 0 1 8.802 16.5a2.98 2.98 0 0 1-1.114 2.325 9.132 9.132 0 0 0 3.76 5.261l1.576-2.635A6.043 6.043 0 0 1 10.45 16.5zm6.05 6.05c-.91 0-1.774-.202-2.549-.562l-1.493 2.682a9.073 9.073 0 0 0 4.042.944c.828 0 1.63-.11 2.394-.318a2.976 2.976 0 0 1 1.457-2.127 2.979 2.979 0 0 1 2.568-.2 9.09 9.09 0 0 0 2.677-5.885l-3.07-.048A6.05 6.05 0 0 1 16.5 22.55z"/></svg>