<svg xmlns="http://www.w3.org/2000/svg" viewBox="0 0 37 27"><path fill="#009AC7" fill-rule="evenodd" d="M9 0v12.5a9.5 9.5 0 0 0 19 0V0h2.09c2.23 0 3.037.232 3.852.668a4.543 4.543 0 0 1 1.89 1.89c.436.815.668 1.623.668 3.852v12.898c0 2.675-.278 3.645-.801 4.623a5.452 5.452 0 0 1-2.268 2.268c-.978.523-1.948.801-4.623.801H8.192c-2.675 0-3.645-.278-4.623-.801a5.452 5.452 0 0 1-2.268-2.268C.778 22.953.5 21.983.5 19.308V6.41c0-2.23.232-3.037.668-3.852a4.543 4.543 0 0 1 1.89-1.89C3.873.232 4.68 0 6.91 0H9zm5 0h9v12.5a4.5 4.5 0 1 1-9 0V0z"/></svg>