<svg xmlns="http://www.w3.org/2000/svg" viewBox="0 0 33 33"><path fill="#107C10" fill-rule="nonzero" d="M14.855 32.932c-2.543-.243-5.116-1.156-7.327-2.597-1.852-1.208-2.27-1.705-2.27-2.696 0-1.99 2.19-5.478 5.937-9.452 2.127-2.258 5.091-4.903 5.412-4.832.623.14 5.606 4.997 7.471 7.284 2.95 3.615 4.305 6.575 3.616 7.895-.523 1.003-3.773 2.965-6.16 3.718-1.967.62-4.551.884-6.68.68zm-12.1-7.362C1.215 23.209.438 20.885.063 17.524c-.124-1.11-.08-1.744.28-4.023.45-2.836 2.068-6.121 4.013-8.142.827-.858.901-.881 1.91-.54 1.224.414 2.532 1.317 4.561 3.151l1.185 1.071-.648.794C8.362 13.518 5.193 18.743 4 21.975c-.648 1.755-.91 3.519-.63 4.253.189.496.016.311-.617-.657l.002-.001zm27.022.4c.152-.741-.04-2.104-.49-3.478-.977-2.977-4.24-8.514-7.237-12.28l-.944-1.184 1.021-.937c1.333-1.223 2.258-1.955 3.257-2.577.787-.49 1.913-.925 2.397-.925.298 0 1.348 1.092 2.196 2.28 1.313 1.84 2.28 4.076 2.768 6.399.317 1.502.343 4.715.051 6.213-.241 1.23-.747 2.824-1.238 3.905-.372.81-1.29 2.384-1.692 2.896-.207.264-.207.263-.092-.305l.003-.006zM15.127 4.028c-1.383-.701-3.516-1.455-4.695-1.658a8.57 8.57 0 0 0-1.565-.088c-.972.049-.929-.002.63-.738 1.297-.612 2.379-.972 3.848-1.28 1.65-.347 4.756-.351 6.38-.009 1.755.37 3.822 1.139 4.987 1.856l.346.212-.794-.04c-1.578-.08-3.879.558-6.349 1.758-.745.363-1.392.652-1.44.644-.047-.009-.654-.304-1.35-.657h.002z"/></svg>